HIERARCHY
ROOT hip
{
	OFFSET 0.000000 0.000000 0.000000 
	CHANNELS 6 Xposition Yposition Zposition Xrotation Zrotation Yrotation
	JOINT abdomen
	{
		OFFSET 0.000000 3.402643 0.000000 
		CHANNELS 3 Xrotation Zrotation Yrotation
		JOINT chest
		{
			OFFSET 0.000000 8.438565 -0.680529 
			CHANNELS 3 Xrotation Zrotation Yrotation
			JOINT neck
			{
				OFFSET 0.000000 10.207942 -0.272212 
				CHANNELS 3 Xrotation Zrotation Yrotation
				JOINT head
				{
					OFFSET 0.000000 3.130431 0.000000 
					CHANNELS 3 Xrotation Zrotation Yrotation
					End Site
					{
						OFFSET 0.000000 3.130435 0.000000 
					}
				}
			}
			JOINT lCollar
			{
				OFFSET 3.470700 6.669187 -0.816635 
				CHANNELS 3 Yrotation Zrotation Xrotation
				JOINT lShldr
				{
					OFFSET 3.198488 0.000000 0.000000 
					CHANNELS 3 Zrotation Yrotation Xrotation
					JOINT lForeArm
					{
						OFFSET 10.139888 0.000000 0.000000 
						CHANNELS 3 Yrotation Zrotation Xrotation
						JOINT lHand
						{
							OFFSET 8.370511 0.000000 0.000000 
							CHANNELS 3 Zrotation Yrotation Xrotation
							End Site
							{
								OFFSET 4.083176 0.000000 0.000000 
							}
						}
					}
				}
			}
			JOINT rCollar
			{
				OFFSET -3.470700 6.669187 -0.816635 
				CHANNELS 3 Yrotation Zrotation Xrotation
				JOINT rShldr
				{
					OFFSET -3.198488 0.000000 0.000000 
					CHANNELS 3 Zrotation Yrotation Xrotation
					JOINT rForeArm
					{
						OFFSET -10.139888 0.000000 0.000000 
						CHANNELS 3 Yrotation Zrotation Xrotation
						JOINT rHand
						{
							OFFSET -8.370511 0.000000 0.000000 
							CHANNELS 3 Zrotation Yrotation Xrotation
							End Site
							{
								OFFSET -4.083176 0.000000 0.000000 
							}
						}
					}
				}
			}
		}
	}
	JOINT lThigh
	{
		OFFSET 5.308129 -1.633274 1.361059 
		CHANNELS 3 Xrotation Zrotation Yrotation
		JOINT lShin
		{
			OFFSET -2.041588 -20.007561 0.000000 
			CHANNELS 3 Xrotation Zrotation Yrotation
			JOINT lFoot
			{
				OFFSET 0.000000 -19.190928 -1.224953 
				CHANNELS 3 Xrotation Yrotation Zrotation
				End Site
				{
					OFFSET 0.000000 -2.449906 4.627600 
				}
			}
		}
	}
	JOINT rThigh
	{
		OFFSET -5.308129 -1.633274 1.361059 
		CHANNELS 3 Xrotation Zrotation Yrotation
		JOINT rShin
		{
			OFFSET 2.041588 -20.007561 0.000000 
			CHANNELS 3 Xrotation Zrotation Yrotation
			JOINT rFoot
			{
				OFFSET 0.000000 -19.190928 -1.224953 
				CHANNELS 3 Xrotation Yrotation Zrotation
				End Site
				{
					OFFSET 0.000000 -2.449906 4.627600 
				}
			}
		}
	}
}
MOTION
Frames: 20
Frame Time: 0.033333
-2.369605 50.417561 0.530679 2.841797 9.472657 -81.072609 20.346130 -2.507020 -15.164850 -25.361330 15.634766 -0.898438 51.553619 8.070152 2.616707 -61.005863 6.992187 -48.681637 2.000000 -2.000000 0.000000 -79.365234 9.541016 23.917631 -53.641048 -1.675247 -2.275260 -4.184208 56.184059 9.165084 -2.000000 2.000000 0.000000 67.587891 -28.046875 6.977832 60.507668 1.286985 -2.327466 -47.008469 -76.871033 52.134178 12.683675 3.389004 10.158714 13.450612 -6.209340 -1.092022 -0.911086 10.804143 -9.233371 -22.631237 1.768435 -15.150496 4.907192 5.707558 0.084282 1.837972 -15.793042 -2.984704 
-4.439430 51.176735 1.283006 4.433594 8.574219 -80.174324 19.266182 -1.185458 -14.683743 -23.417969 13.994141 -1.237873 51.553619 8.070152 2.616707 -61.093746 8.720703 -49.383286 2.000000 -2.000000 0.000000 -78.808594 10.703125 24.873047 -53.289753 -1.675815 -2.285006 -3.366719 56.160164 9.032940 -2.000000 2.000000 0.000000 68.466797 -27.304688 5.434976 60.676052 1.106287 -2.416393 -47.994850 -77.595299 53.483250 18.337526 4.570630 10.471662 8.864202 -6.277069 -0.719128 3.333629 10.439722 -6.693209 -20.318739 2.334186 -15.509794 6.684463 5.649844 0.754677 4.425825 -16.753876 -1.121831 
-6.578556 51.920078 1.940750 5.839844 7.665885 -79.354355 18.379818 -0.346150 -14.420024 -21.650393 12.714844 -1.679688 51.553619 8.070152 2.616707 -61.328125 10.800778 -50.673824 2.000000 -2.000000 0.000000 -78.730469 12.255859 24.902346 -52.912762 -1.976426 -2.071901 -2.894090 56.265419 9.132384 -2.000000 2.000000 0.000000 69.658203 -26.718750 4.370609 60.851570 1.105720 -2.406648 -48.294292 -78.115143 53.913185 23.309692 5.693725 11.390932 4.274486 -5.924525 -0.734571 9.283889 9.607793 -5.668052 -17.428825 3.349192 -15.349779 7.397985 5.689028 0.633628 6.208653 -17.485685 0.666876 
-8.515514 52.481556 2.366592 6.884765 6.953125 -78.964844 17.840189 -0.342370 -14.087489 -20.253906 11.787109 -1.855469 51.553619 8.070152 2.616707 -61.582031 13.066404 -52.761467 2.000000 -2.000000 0.000000 -77.841797 14.511719 25.285652 -52.561447 -1.986744 -2.081078 -5.388885 55.996532 7.155266 -2.000000 2.000000 0.000000 71.386719 -25.751955 2.827788 61.203117 1.115470 -2.406082 -47.348156 -78.448158 53.201721 26.635124 6.855865 12.011595 1.773361 -5.587515 -0.404268 16.363544 8.475359 -4.131750 -14.401737 3.876372 -15.457642 7.559089 5.869078 0.530211 8.008419 -17.875088 2.542381 
-9.540649 52.782051 2.696241 7.246094 6.621094 -78.778175 17.469767 -1.286939 -13.862795 -19.179689 11.562501 -1.669922 51.553619 8.070152 2.616707 -61.865238 15.820312 -55.283203 2.000000 -2.000000 0.000000 -76.728516 17.431643 25.774410 -52.398655 -1.837008 -2.197375 -7.855104 56.261765 5.577531 -2.000000 2.000000 0.000000 73.369141 -24.257813 1.460832 61.378643 1.105154 -2.396902 -42.192410 -77.830246 47.664989 27.058115 8.447510 13.538971 2.652056 -5.908920 -0.374765 25.968761 7.244398 -2.160469 -15.756470 3.808721 -16.213722 13.747938 5.526348 1.487637 9.698050 -16.962492 4.051162 
-11.211941 52.861134 2.574564 7.060547 6.787109 -78.963684 17.275652 -2.809100 -13.624556 -18.115234 11.337892 -1.482455 51.553619 8.070152 2.616707 -62.519535 18.271484 -57.753906 2.000000 -2.000000 0.000000 -75.400391 20.009768 26.035154 -52.034119 -1.976995 -2.081647 -9.882146 56.088818 4.206914 -2.000000 2.000000 0.000000 75.000000 -22.500000 0.859375 61.564175 1.114903 -2.396337 -36.153587 -76.613861 41.062569 21.810284 9.696764 16.349783 10.072438 -5.642895 -1.128549 27.999424 9.936538 1.248278 -14.685989 3.623042 -16.120031 16.215664 5.728642 1.591910 8.140984 -17.293232 3.750949 
-12.843422 52.971855 2.231188 6.376953 7.158204 -79.344482 16.923775 -4.511611 -13.435661 -17.226563 11.298828 -1.140665 51.553619 8.070152 2.616707 -63.066410 20.146482 -59.580082 2.000000 -2.000000 0.000000 -74.033203 22.480469 26.464844 -51.884052 -1.667201 -2.305065 -10.899676 55.838024 1.415243 -2.000000 2.000000 0.000000 75.273438 -20.087893 1.627505 61.907906 1.294922 -2.464123 -33.906826 -75.460625 38.244209 12.135034 11.707661 19.973391 23.307188 -5.273277 -2.485317 25.106310 14.898876 1.210715 -13.587166 3.476712 -16.611450 18.155897 5.729709 1.989594 6.591992 -17.645845 3.590441 
-14.540986 53.019299 1.918206 5.498047 7.695313 -80.106110 16.752239 -6.379029 -13.284440 -16.318357 11.259767 -0.789109 51.553619 8.070152 2.616707 -63.808598 21.005856 -60.546875 2.000000 -2.000000 0.000000 -72.841797 25.195314 25.765879 -52.209900 -1.976995 -2.081647 -10.261095 56.191189 -0.689071 -2.000000 2.000000 0.000000 74.482422 -17.617188 4.365234 62.095585 1.094155 -2.544216 -33.546978 -75.219009 36.914524 2.059551 13.983754 22.882334 35.439648 -4.739526 -2.968332 20.338924 19.296974 -0.228357 -12.562124 3.164202 -16.864235 18.901222 5.558396 2.021160 5.093391 -16.816277 2.995027 
-16.229197 53.019299 1.609655 4.433594 8.398438 -80.721230 16.753290 -8.168179 -12.926127 -15.615233 11.210938 -0.466851 51.553619 8.070152 2.616707 -64.570313 20.664061 -60.781254 2.000000 -2.000000 0.000000 -72.011726 27.744139 24.228516 -51.884052 -1.667201 -2.305065 -9.366941 56.522240 -0.979129 -2.000000 2.000000 0.000000 72.988281 -14.716797 7.243314 62.258713 1.254225 -2.437148 -35.316246 -74.983658 37.602425 -5.166476 15.406747 23.567469 41.780903 -4.604476 -3.777258 15.338568 21.908043 -0.268473 -11.013180 2.792526 -16.765566 19.562124 5.461111 2.259430 3.728536 -16.504787 2.512451 
-17.898216 52.971855 1.350228 3.193360 8.945313 -81.570740 16.609846 -9.881169 -12.722226 -14.882813 11.347656 -0.107422 51.553619 8.070152 2.616707 -65.126953 19.462889 -59.960941 2.000000 -2.000000 0.000000 -72.509766 29.990234 20.244143 -51.703762 -1.647799 -2.139962 -9.112537 57.808666 0.073903 -2.000000 2.000000 0.000000 71.523438 -11.650391 10.349592 62.434505 1.244476 -2.437713 -38.027180 -74.801048 39.359531 -9.189376 15.662356 22.847898 41.375065 -4.276731 -3.954021 11.837236 21.300289 -0.040726 -9.535564 2.256330 -16.544914 20.080191 5.456853 2.304059 2.077232 -15.914887 2.264234 
-19.567719 52.861134 1.212859 2.109375 9.462832 -82.244537 16.447399 -11.255104 -12.397706 -14.541015 11.162108 0.089781 51.553619 8.070152 2.616707 -65.683594 17.773436 -58.971626 2.000000 -2.000000 0.000000 -74.384766 32.500000 14.360717 -51.510323 -1.767790 -1.849081 -8.469729 59.510918 3.354989 -2.000000 2.000000 0.000000 69.375000 -8.486328 13.553246 62.622391 1.093022 -2.524725 -39.204334 -74.852600 39.431110 -12.371856 15.308961 20.939529 38.589355 -4.738716 -3.872070 8.160387 19.804577 0.410494 -8.245535 1.670379 -16.108471 20.271605 5.501028 2.006449 -0.274893 -15.877460 2.029492 
-21.209768 52.702976 1.267384 1.230469 9.824219 -82.929688 16.432981 -12.103113 -11.943713 -14.365235 10.976564 0.253906 51.553619 8.070152 2.616707 -66.230476 15.908204 -57.724613 2.000000 -2.000000 0.000000 -77.285156 34.599606 8.589530 -51.351963 -1.627733 -2.131354 -7.392950 61.209301 6.397049 -2.000000 2.000000 0.000000 67.041016 -5.410157 16.366266 62.975895 1.273037 -2.592511 -39.922756 -74.835121 39.240669 -14.997042 14.525570 18.753481 34.176586 -4.727695 -3.204911 4.250736 16.459785 0.923055 -6.419028 1.065842 -15.548714 20.653118 5.683265 2.273878 -1.823103 -15.377316 1.583585 
-22.802263 52.481556 1.531245 0.712891 9.824219 -83.347946 16.373062 -12.552374 -11.161152 -14.394531 10.634766 0.322266 51.553619 8.070152 2.616707 -66.630867 14.384765 -56.875004 2.000000 -2.000000 0.000000 -79.892578 36.162109 3.583984 -51.176201 -1.617984 -2.131922 -6.850413 62.347046 8.190316 -2.000000 2.000000 0.000000 64.726563 -2.480469 18.828121 62.978619 1.082253 -2.339560 -41.671387 -74.657143 40.330158 -16.696430 13.111293 16.764837 28.526424 -5.015172 -3.173877 1.093613 13.947637 0.760309 -4.655529 0.684216 -15.307240 20.455612 5.331039 2.326009 -3.285944 -15.081802 1.642030 
-24.356123 52.252216 1.960708 0.341797 9.814444 -83.582321 16.463177 -12.663117 -10.305915 -14.589844 10.302734 0.390625 51.553619 8.070152 2.616707 -66.816406 13.222656 -56.250004 2.000000 -2.000000 0.000000 -81.503906 38.535156 1.343974 -51.527763 -1.617984 -2.131923 -7.331201 62.048725 7.124035 -2.000000 2.000000 0.000000 62.919922 -0.068359 20.449217 63.502987 1.262722 -2.583331 -41.635105 -74.506790 39.907616 -18.329351 11.464170 14.381808 22.870718 -5.267190 -2.650188 -2.156109 10.891197 0.674946 -2.591523 -0.279406 -14.752450 20.972980 5.627528 2.244989 -4.761442 -14.809999 2.198156 
-25.853502 51.991261 2.520108 0.000000 9.824219 -84.023438 16.362314 -12.765593 -9.447241 -14.794922 9.794922 0.576172 51.553619 8.070152 2.616707 -67.216797 11.874998 -55.585941 2.000000 -2.000000 0.000000 -82.246094 40.966797 0.680232 -51.879047 -1.627165 -2.121609 -9.087930 61.471443 3.734658 -2.000000 2.000000 0.000000 62.343746 1.240234 21.201172 64.202827 1.070124 -2.467383 -39.533432 -73.887421 39.440239 -19.714817 9.900855 12.584444 18.124962 -5.499827 -1.866195 -5.161352 8.240727 0.491846 -1.012486 -1.039192 -14.066797 21.521126 5.839217 1.863430 -5.280219 -14.265073 2.693162 
-27.260021 51.754017 3.200033 -0.361328 9.648438 -84.267578 16.408543 -12.777305 -8.385312 -15.351563 9.326174 0.528926 51.553619 8.070152 2.616707 -67.441406 10.351563 -54.793167 2.000000 -2.000000 0.000000 -83.066406 42.949219 -0.618345 -52.037155 -1.756902 -1.830160 -10.831473 60.692215 1.402444 -2.000000 2.000000 0.000000 63.222656 1.074219 20.576168 65.088371 0.927723 -2.710481 -36.314243 -73.631866 38.783630 -21.295921 8.328274 10.985786 14.776249 -5.528200 -1.519652 -7.598533 6.909654 0.301826 0.770691 -2.118392 -14.092500 22.419653 5.368202 2.541907 -5.838852 -13.709849 3.836858 
-28.495388 51.493057 3.851569 -0.537109 9.482436 -84.461273 16.443129 -12.622604 -7.264262 -15.917971 8.828126 0.664062 51.553619 8.070152 2.616707 -67.480469 8.857421 -53.816860 2.000000 -2.000000 0.000000 -84.394531 43.876953 -3.733465 -52.212933 -1.756902 -1.830160 -11.666458 60.918793 1.149164 -2.000000 2.000000 0.000000 64.130859 0.195313 19.365246 65.439651 0.936906 -2.700172 -33.193905 -73.281761 37.491249 -22.725632 6.470059 10.170792 12.836616 -5.663013 -1.645454 -7.366398 6.741926 0.553049 2.055677 -3.038455 -13.457371 23.485733 5.374231 2.529303 -4.974068 -13.967909 3.807279 
-29.569805 51.239994 4.550321 -0.908203 9.306642 -84.871468 16.467493 -12.212626 -6.240633 -16.464844 8.339844 0.634766 51.553619 8.070152 2.616707 -67.734375 7.187499 -52.822269 2.000000 -2.000000 0.000000 -85.859375 44.267574 -6.884765 -52.238552 -1.427636 -2.055020 -12.515964 61.165951 2.048694 -2.000000 2.000000 0.000000 64.541016 -1.396484 17.919617 65.088364 0.937472 -2.709918 -33.482445 -73.460251 38.488331 -23.710991 4.472985 9.095371 12.844163 -5.671583 -1.627668 -6.016464 8.015038 1.181855 3.170851 -4.019862 -12.635485 24.909307 5.495240 2.183562 -3.577401 -13.798333 3.493027 
-30.460917 51.002762 5.293654 -1.083984 8.945313 -85.066833 16.523823 -11.885183 -5.414749 -17.011721 7.841797 0.634766 51.553619 8.070152 2.616707 -67.812500 5.673828 -51.845707 2.000000 -2.000000 0.000000 -86.679688 44.013672 -8.046876 -52.238289 -1.427068 -2.045274 -13.050556 61.643345 2.531803 -2.000000 2.000000 0.000000 65.498047 -3.134765 15.947264 64.561554 0.938603 -2.729409 -33.987713 -73.440315 39.294800 -24.179825 2.803075 8.363631 13.747898 -5.654618 -1.208671 -4.984708 9.174382 1.657812 3.913478 -4.588060 -12.180202 26.290258 4.840002 2.701985 -0.513216 -14.214845 3.751983 
-31.127552 50.773422 6.095889 -1.250000 8.759767 -85.273438 16.731884 -11.401837 -4.557573 -17.568359 7.363281 0.625000 51.553619 8.070152 2.616707 -67.910156 4.150391 -50.527348 2.000000 -2.000000 0.000000 -86.083984 42.646481 -4.680884 -51.865864 -1.756829 -1.996702 -13.694309 62.572464 2.397192 -2.000000 2.000000 0.000000 66.044922 -5.195313 13.837007 63.849804 0.920487 -2.417392 -34.353584 -73.572876 39.538681 -23.684023 1.258203 7.804495 13.903589 -5.605376 -1.256307 -4.731426 10.260285 1.996630 4.127871 -5.739277 -11.537630 28.062664 4.772594 2.679646 3.931479 -13.937742 3.284794 
